<?xml version="1.0" standalone="no"?>
<!DOCTYPE svg PUBLIC "-//W3C//DTD SVG 20010904//EN"
 "http://www.w3.org/TR/2001/REC-SVG-20010904/DTD/svg10.dtd">
<svg version="1.0" xmlns="http://www.w3.org/2000/svg"
 width="500.000000pt" height="500.000000pt" viewBox="0 0 500.000000 500.000000"
 preserveAspectRatio="xMidYMid meet">

<g transform="translate(0.000000,500.000000) scale(0.100000,-0.100000)"
fill="#000000" stroke="none">
<path d="M2435 3926 c-50 -22 -85 -71 -85 -118 0 -45 23 -91 55 -108 28 -15
77 -9 83 9 4 10 -2 12 -22 7 -34 -8 -62 7 -81 44 -23 45 -18 69 24 111 64 64
144 54 191 -24 44 -72 13 -179 -73 -250 -72 -60 -103 -90 -108 -106 -4 -10
-34 -16 -105 -22 -198 -15 -304 -45 -326 -94 -22 -48 34 -83 187 -117 85 -18
548 -18 630 1 97 22 133 48 119 85 -12 30 -58 36 -244 34 -160 -3 -189 -1
-211 14 -15 9 -29 26 -32 37 -5 20 -2 21 126 21 215 -1 393 -31 448 -77 27
-23 28 -26 15 -52 -48 -92 -292 -162 -561 -162 -210 -1 -314 23 -464 103 -155
83 -240 76 -293 -24 -18 -34 -22 -60 -23 -128 0 -76 3 -92 32 -150 56 -114
170 -224 244 -236 24 -4 44 -15 53 -29 15 -23 15 -23 -82 -45 -412 -95 -307
-266 200 -324 175 -21 559 -21 732 -1 297 35 456 97 456 180 0 26 -8 40 -36
64 -38 30 -152 71 -256 91 -32 6 -58 13 -58 15 0 1 13 31 30 66 51 110 62 170
67 347 4 132 3 162 -8 162 -11 0 -14 -29 -14 -138 0 -96 -5 -160 -18 -213 -66
-285 -258 -425 -552 -406 -171 12 -283 57 -382 152 -35 34 -63 66 -63 71 0 6
12 16 28 23 93 42 150 119 139 188 -11 64 -58 92 -102 59 -17 -12 -22 -11 -46
15 -34 37 -60 37 -101 0 -30 -26 -33 -35 -32 -80 1 -33 12 -70 32 -111 26 -50
28 -60 14 -60 -48 1 -164 112 -214 204 -30 56 -33 68 -33 151 0 100 12 135 58
169 46 34 94 26 220 -37 62 -31 137 -63 167 -71 234 -64 601 -38 779 54 65 34
81 46 104 80 26 37 21 66 -15 93 -64 48 -198 73 -435 83 -84 4 -150 11 -147
16 3 4 35 32 72 62 86 68 126 137 127 216 0 93 -54 159 -136 166 -25 3 -57 -2
-74 -10z m-20 -508 c7 -20 23 -38 45 -50 32 -18 51 -19 210 -15 185 4 225 0
225 -23 0 -42 -252 -77 -480 -67 -434 19 -548 122 -190 172 50 7 110 13 135
14 43 1 46 -1 55 -31z m-391 -434 c9 -8 16 -24 16 -33 0 -10 6 -24 14 -30 11
-9 18 -6 36 19 39 55 94 17 76 -53 -13 -54 -99 -127 -149 -127 -20 0 -68 113
-69 161 -1 63 41 98 76 63z"/>
</g>
</svg>
